<svg width="31" height="31" viewBox="0 0 31 31" fill="none" xmlns="http://www.w3.org/2000/svg">
<g clip-path="url(#clip0_268_1058)">
<path fill-rule="evenodd" clip-rule="evenodd" d="M10.3595 2.71568C10.3595 1.5462 9.4114 0.598145 8.24193 0.598145C7.07246 0.598145 6.1244 1.5462 6.1244 2.71568V4.83321H4.00687C2.25264 4.83321 0.830566 6.25528 0.830566 8.00951V11.1858H30.476V8.00951C30.476 6.25528 29.0539 4.83321 27.2997 4.83321H25.1824V2.71568C25.1824 1.5462 24.2344 0.598145 23.0649 0.598145C21.8954 0.598145 20.9473 1.5462 20.9473 2.71568V4.83321H10.3595V2.71568ZM30.476 13.8327H0.830566V27.0673C0.830566 28.8215 2.25264 30.2436 4.00687 30.2436H27.2997C29.0539 30.2436 30.476 28.8215 30.476 27.0673V13.8327Z" fill="#B9C9D9"/>
</g>
<defs>
<clipPath id="clip0_268_1058">
<rect width="29.6455" height="29.6455" fill="white" transform="translate(0.830566 0.598145)"/>
</clipPath>
</defs>
</svg>
