<svg width="15" height="15" viewBox="0 0 15 15" fill="none" xmlns="http://www.w3.org/2000/svg">
<g clip-path="url(#clip0_208_2463)">
<path fill-rule="evenodd" clip-rule="evenodd" d="M7.5 15C11.6421 15 15 11.6421 15 7.5C15 3.35787 11.6421 0 7.5 0C3.35787 0 0 3.35787 0 7.5C0 11.6421 3.35787 15 7.5 15ZM8.16964 4.82143C8.16964 4.45159 7.86984 4.15179 7.5 4.15179C7.13016 4.15179 6.83036 4.45159 6.83036 4.82143V7.5C6.83036 7.65665 6.88528 7.80835 6.98556 7.9287L9.66414 11.143C9.9009 11.4271 10.3231 11.4655 10.6073 11.2287C10.8914 10.992 10.9297 10.5697 10.693 10.2856L8.16964 7.25756V4.82143Z" fill="#6767E3"/>
</g>
<defs>
<clipPath id="clip0_208_2463">
<rect width="15" height="15" fill="white"/>
</clipPath>
</defs>
</svg>
