<svg width="31" height="31" viewBox="0 0 31 31" fill="none" xmlns="http://www.w3.org/2000/svg">
<g clip-path="url(#clip0_268_1060)">
<path d="M2.88149 30.2454C2.28851 30.2454 1.76966 29.9674 1.32493 29.4115C0.880202 28.8556 0.657837 28.207 0.657837 27.4658V3.37624C0.657837 2.63503 0.880202 1.98646 1.32493 1.43055C1.76966 0.874636 2.28851 0.59668 2.88149 0.59668H28.0829C28.6758 0.59668 29.1947 0.874636 29.6394 1.43055C30.0842 1.98646 30.3065 2.63503 30.3065 3.37624V27.4658C30.3065 28.207 30.0842 28.8556 29.6394 29.4115C29.1947 29.9674 28.6758 30.2454 28.0829 30.2454H2.88149ZM2.88149 14.4018H28.0829V8.42578H2.88149V14.4018Z" fill="#B9C9D9"/>
</g>
<defs>
<clipPath id="clip0_268_1060">
<rect width="29.6487" height="29.6487" fill="white" transform="translate(0.657837 0.59668)"/>
</clipPath>
</defs>
</svg>
