<svg width="31" height="24" viewBox="0 0 31 24" fill="none" xmlns="http://www.w3.org/2000/svg">
<path fill-rule="evenodd" clip-rule="evenodd" d="M3.85105 0.754745C2.0736 0.754745 0.63269 2.19565 0.63269 3.97311V5.98982H30.6707V3.97311C30.6707 2.19565 29.2298 0.754745 27.4524 0.754745H3.85105ZM0.63269 20.0649V8.67179H30.6707V20.0649C30.6707 21.8423 29.2298 23.2833 27.4524 23.2833H3.85105C2.0736 23.2833 0.63269 21.8423 0.63269 20.0649ZM21.0157 15.5056C20.275 15.5056 19.6747 16.106 19.6747 16.8466C19.6747 17.5872 20.275 18.1875 21.0157 18.1875H24.234C24.9747 18.1875 25.575 17.5872 25.575 16.8466C25.575 16.106 24.9747 15.5056 24.234 15.5056H21.0157Z" fill="#6767E3"/>
</svg>
