<svg width="30" height="31" viewBox="0 0 30 31" fill="none" xmlns="http://www.w3.org/2000/svg">
<path d="M20.3 10.121C20.9973 10.8175 21.5505 11.6447 21.928 12.5552C22.3054 13.4657 22.4997 14.4416 22.4997 15.4272C22.4997 16.4129 22.3054 17.3888 21.928 18.2993C21.5505 19.2098 20.9973 20.0369 20.3 20.7335M9.70002 20.721C9.00269 20.0244 8.4495 19.1973 8.07207 18.2868C7.69464 17.3763 7.50037 16.4004 7.50037 15.4147C7.50037 14.4291 7.69464 13.4532 8.07207 12.5427C8.4495 11.6322 9.00269 10.805 9.70002 10.1085M23.8375 6.5835C26.1809 8.92759 27.4973 12.1064 27.4973 15.421C27.4973 18.7355 26.1809 21.9144 23.8375 24.2585M6.16252 24.2585C3.81913 21.9144 2.50269 18.7355 2.50269 15.421C2.50269 12.1064 3.81913 8.92759 6.16252 6.5835M17.5 15.421C17.5 16.8017 16.3807 17.921 15 17.921C13.6193 17.921 12.5 16.8017 12.5 15.421C12.5 14.0403 13.6193 12.921 15 12.921C16.3807 12.921 17.5 14.0403 17.5 15.421Z" stroke="#1E1E1E" stroke-width="2.5" stroke-linecap="round" stroke-linejoin="round"/>
</svg>
