<svg width="31" height="31" viewBox="0 0 31 31" fill="none" xmlns="http://www.w3.org/2000/svg">
<g clip-path="url(#clip0_268_1063)">
<path d="M7.24165 23.7803H9.71238V12.4562H7.24165V23.7803ZM14.0773 23.7803H16.548V7.06174H14.0773V23.7803ZM20.913 23.7803H23.3837V17.6858H20.913V23.7803ZM2.95907 30.2454C2.30021 30.2454 1.7237 29.9983 1.22956 29.5041C0.735415 29.01 0.488342 28.4335 0.488342 27.7746V3.0674C0.488342 2.40854 0.735415 1.83204 1.22956 1.3379C1.7237 0.843752 2.30021 0.59668 2.95907 0.59668H27.6663C28.3252 0.59668 28.9017 0.843752 29.3958 1.3379C29.8899 1.83204 30.137 2.40854 30.137 3.0674V27.7746C30.137 28.4335 29.8899 29.01 29.3958 29.5041C28.9017 29.9983 28.3252 30.2454 27.6663 30.2454H2.95907Z" fill="#B9C9D9"/>
</g>
<defs>
<clipPath id="clip0_268_1063">
<rect width="29.6487" height="29.6487" fill="white" transform="translate(0.488342 0.59668)"/>
</clipPath>
</defs>
</svg>
