<svg width="30" height="31" viewBox="0 0 30 31" fill="none" xmlns="http://www.w3.org/2000/svg">
<path d="M13.75 5.42094H5C4.33696 5.42094 3.70107 5.68433 3.23223 6.15317C2.76339 6.62201 2.5 7.2579 2.5 7.92094V25.4209C2.5 26.084 2.76339 26.7199 3.23223 27.1887C3.70107 27.6575 4.33696 27.9209 5 27.9209H22.5C23.163 27.9209 23.7989 27.6575 24.2678 27.1887C24.7366 26.7199 25 26.084 25 25.4209V16.6709M23.125 3.54594C23.6223 3.04866 24.2967 2.76929 25 2.76929C25.7033 2.76929 26.3777 3.04866 26.875 3.54594C27.3723 4.04322 27.6517 4.71768 27.6517 5.42094C27.6517 6.1242 27.3723 6.79866 26.875 7.29594L15 19.1709L10 20.4209L11.25 15.4209L23.125 3.54594Z" stroke="#1E1E1E" stroke-width="2.5" stroke-linecap="round" stroke-linejoin="round"/>
</svg>
