<svg width="31" height="31" viewBox="0 0 31 31" fill="none" xmlns="http://www.w3.org/2000/svg">
<path fill-rule="evenodd" clip-rule="evenodd" d="M30.9092 15.4209C30.9092 19.4428 29.3263 23.0949 26.7497 25.7885C24.0283 28.6331 20.1985 30.4085 15.9539 30.4209C15.939 30.4209 15.9241 30.4209 15.9092 30.4209C15.8942 30.4209 15.8793 30.4209 15.8644 30.4209C11.6198 30.4085 7.79002 28.6331 5.06874 25.7885C2.49202 23.0949 0.90918 19.4428 0.90918 15.4209C0.90918 7.13663 7.62492 0.420898 15.9092 0.420898C24.1935 0.420898 30.9092 7.13663 30.9092 15.4209ZM25.0009 22.9209C22.8394 20.3033 19.569 18.6351 15.9092 18.6351C12.2493 18.6351 8.97905 20.3033 6.81736 22.9209C8.97905 25.5384 12.2493 27.2066 15.9092 27.2066C19.569 27.2066 22.8394 25.5384 25.0009 22.9209ZM15.9094 16.4923C18.8681 16.4923 21.2666 14.0938 21.2666 11.1351C21.2666 8.17646 18.8681 5.77798 15.9094 5.77798C12.9508 5.77798 10.5523 8.17646 10.5523 11.1351C10.5523 14.0938 12.9508 16.4923 15.9094 16.4923Z" fill="#B9C9D9"/>
</svg>
