<svg width="30" height="31" viewBox="0 0 30 31" fill="none" xmlns="http://www.w3.org/2000/svg">
<path d="M6.25 26.6709H23.75C25.1307 26.6709 26.25 25.5516 26.25 24.1709V6.6709C26.25 5.29019 25.1307 4.1709 23.75 4.1709H6.25C4.86929 4.1709 3.75 5.29019 3.75 6.6709V24.1709C3.75 25.5516 4.86929 26.6709 6.25 26.6709ZM6.25 26.6709L20 12.9209L26.25 19.1709M12.5 11.0459C12.5 12.0814 11.6605 12.9209 10.625 12.9209C9.58947 12.9209 8.75 12.0814 8.75 11.0459C8.75 10.0104 9.58947 9.1709 10.625 9.1709C11.6605 9.1709 12.5 10.0104 12.5 11.0459Z" stroke="#1E1E1E" stroke-width="2.5" stroke-linecap="round" stroke-linejoin="round"/>
</svg>
