<svg width="30" height="31" viewBox="0 0 30 31" fill="none" xmlns="http://www.w3.org/2000/svg">
<path d="M7.74667 26.5888L19.0699 15.9316L24.3984 21.2602M7.74667 26.5888H21.0681C23.2753 26.5888 25.0645 24.7995 25.0645 22.5923V15.9316M7.74667 26.5888C5.53951 26.5888 3.75024 24.7995 3.75024 22.5923V9.27091C3.75024 7.06374 5.53951 5.27448 7.74667 5.27448H16.4056M23.7324 11.7066L23.7324 7.93876M23.7324 7.93876L23.7324 4.1709M23.7324 7.93876L19.9645 7.93876M23.7324 7.93876L27.5002 7.93876M11.7431 11.2691C11.7431 12.3727 10.8485 13.2673 9.74488 13.2673C8.6413 13.2673 7.74667 12.3727 7.74667 11.2691C7.74667 10.1655 8.6413 9.27091 9.74488 9.27091C10.8485 9.27091 11.7431 10.1655 11.7431 11.2691Z" stroke="black" stroke-width="2.5" stroke-linecap="round" stroke-linejoin="round"/>
</svg>
