<svg width="30" height="31" viewBox="0 0 30 31" fill="none" xmlns="http://www.w3.org/2000/svg">
<path d="M26.25 14.7959C26.2543 16.4458 25.8688 18.0733 25.125 19.5459C24.243 21.3106 22.8872 22.7949 21.2093 23.8325C19.5314 24.8702 17.5978 25.4202 15.625 25.4209C13.9752 25.4252 12.3476 25.0398 10.875 24.2959L3.75 26.6709L6.125 19.5459C5.38116 18.0733 4.9957 16.4458 5 14.7959C5.00076 12.8231 5.55076 10.8895 6.5884 9.21162C7.62603 7.53375 9.11032 6.17789 10.875 5.29593C12.3476 4.5521 13.9752 4.16663 15.625 4.17093H16.25C18.8554 4.31467 21.3163 5.41439 23.1614 7.25951C25.0065 9.10463 26.1063 11.5655 26.25 14.1709V14.7959Z" stroke="#1E1E1E" stroke-width="2" stroke-linecap="round" stroke-linejoin="round"/>
</svg>
